<mxfile host="app.diagrams.net" agent="Mozilla/5.0 (Windows NT 10.0; Win64; x64; rv:138.0) Gecko/20100101 Firefox/138.0" version="26.2.14" pages="2">
  <diagram name="package diagram" id="YNQL3yAgizRM4Fua9NCi">
    <mxGraphModel dx="772" dy="527" grid="1" gridSize="10" guides="1" tooltips="1" connect="1" arrows="1" fold="1" page="1" pageScale="1" pageWidth="827" pageHeight="1169" math="0" shadow="0">
      <root>
        <mxCell id="0" />
        <mxCell id="1" parent="0" />
        <mxCell id="U-Nl81Xf8vq8XwK1MDQV-1" value="zeeguu" style="shape=folder;fontStyle=1;spacingTop=10;tabWidth=40;tabHeight=14;tabPosition=left;html=1;whiteSpace=wrap;verticalAlign=top;fillColor=#f5f5f5;fontColor=#333333;strokeColor=#666666;" vertex="1" parent="1">
          <mxGeometry x="150" y="120" width="540" height="360" as="geometry" />
        </mxCell>
        <mxCell id="kXDm2CwT7J9Gi0dhnMuI-8" style="edgeStyle=none;curved=1;rounded=0;orthogonalLoop=1;jettySize=auto;html=1;fontSize=12;startSize=8;endSize=8;dashed=1;endArrow=open;endFill=0;" edge="1" parent="1" source="kXDm2CwT7J9Gi0dhnMuI-1" target="kXDm2CwT7J9Gi0dhnMuI-4">
          <mxGeometry relative="1" as="geometry" />
        </mxCell>
        <mxCell id="kXDm2CwT7J9Gi0dhnMuI-13" style="edgeStyle=none;curved=1;rounded=0;orthogonalLoop=1;jettySize=auto;html=1;fontSize=12;startSize=8;endSize=8;dashed=1;endArrow=open;endFill=0;" edge="1" parent="1" source="kXDm2CwT7J9Gi0dhnMuI-1" target="kXDm2CwT7J9Gi0dhnMuI-3">
          <mxGeometry relative="1" as="geometry" />
        </mxCell>
        <mxCell id="kXDm2CwT7J9Gi0dhnMuI-1" value="zeeguu.core" style="shape=folder;fontStyle=1;spacingTop=10;tabWidth=40;tabHeight=14;tabPosition=left;html=1;whiteSpace=wrap;verticalAlign=top;fillColor=#dae8fc;strokeColor=#6c8ebf;" vertex="1" parent="1">
          <mxGeometry x="364" y="390" width="100" height="70" as="geometry" />
        </mxCell>
        <mxCell id="kXDm2CwT7J9Gi0dhnMuI-9" style="edgeStyle=orthogonalEdgeStyle;rounded=1;orthogonalLoop=1;jettySize=auto;html=1;fontSize=12;startSize=8;endSize=8;dashed=1;endArrow=open;endFill=0;curved=0;" edge="1" parent="1" source="kXDm2CwT7J9Gi0dhnMuI-2" target="kXDm2CwT7J9Gi0dhnMuI-4">
          <mxGeometry relative="1" as="geometry" />
        </mxCell>
        <mxCell id="kXDm2CwT7J9Gi0dhnMuI-10" style="edgeStyle=none;curved=1;rounded=0;orthogonalLoop=1;jettySize=auto;html=1;fontSize=12;startSize=8;endSize=8;startArrow=open;startFill=0;endArrow=open;endFill=0;dashed=1;" edge="1" parent="1" source="kXDm2CwT7J9Gi0dhnMuI-2" target="kXDm2CwT7J9Gi0dhnMuI-1">
          <mxGeometry relative="1" as="geometry" />
        </mxCell>
        <mxCell id="kXDm2CwT7J9Gi0dhnMuI-12" style="edgeStyle=orthogonalEdgeStyle;rounded=1;orthogonalLoop=1;jettySize=auto;html=1;fontSize=12;startSize=8;endSize=8;endArrow=open;endFill=0;dashed=1;curved=0;" edge="1" parent="1" source="kXDm2CwT7J9Gi0dhnMuI-2" target="kXDm2CwT7J9Gi0dhnMuI-3">
          <mxGeometry relative="1" as="geometry" />
        </mxCell>
        <mxCell id="kXDm2CwT7J9Gi0dhnMuI-2" value="zeeguu.api" style="shape=folder;fontStyle=1;spacingTop=10;tabWidth=40;tabHeight=14;tabPosition=left;html=1;whiteSpace=wrap;verticalAlign=top;fillColor=#dae8fc;strokeColor=#6c8ebf;" vertex="1" parent="1">
          <mxGeometry x="364" y="250" width="99" height="70" as="geometry" />
        </mxCell>
        <mxCell id="kXDm2CwT7J9Gi0dhnMuI-3" value="zeeguu.logging" style="shape=folder;fontStyle=1;spacingTop=10;tabWidth=40;tabHeight=14;tabPosition=left;html=1;whiteSpace=wrap;verticalAlign=top;fillColor=#dae8fc;strokeColor=#6c8ebf;" vertex="1" parent="1">
          <mxGeometry x="570" y="390" width="100" height="70" as="geometry" />
        </mxCell>
        <mxCell id="kXDm2CwT7J9Gi0dhnMuI-4" value="zeeguu.config" style="shape=folder;fontStyle=1;spacingTop=10;tabWidth=40;tabHeight=14;tabPosition=left;html=1;whiteSpace=wrap;verticalAlign=top;fillColor=#dae8fc;strokeColor=#6c8ebf;" vertex="1" parent="1">
          <mxGeometry x="190" y="390" width="100" height="70" as="geometry" />
        </mxCell>
        <mxCell id="kXDm2CwT7J9Gi0dhnMuI-11" style="edgeStyle=orthogonalEdgeStyle;rounded=1;orthogonalLoop=1;jettySize=auto;html=1;fontSize=12;startSize=8;endSize=8;dashed=1;endArrow=open;endFill=0;curved=0;" edge="1" parent="1" source="kXDm2CwT7J9Gi0dhnMuI-5" target="kXDm2CwT7J9Gi0dhnMuI-2">
          <mxGeometry relative="1" as="geometry" />
        </mxCell>
        <mxCell id="kXDm2CwT7J9Gi0dhnMuI-5" value="zeeguu.cl" style="shape=folder;fontStyle=1;spacingTop=10;tabWidth=40;tabHeight=14;tabPosition=left;html=1;whiteSpace=wrap;verticalAlign=top;fillColor=#dae8fc;strokeColor=#6c8ebf;" vertex="1" parent="1">
          <mxGeometry x="190" y="170" width="100" height="70" as="geometry" />
        </mxCell>
        <mxCell id="Gzr6hbILwvIzt9myTypM-2" style="edgeStyle=orthogonalEdgeStyle;rounded=0;orthogonalLoop=1;jettySize=auto;html=1;fontSize=12;startSize=8;endSize=8;strokeColor=#AE8F51;dashed=1;endArrow=none;startFill=0;exitX=0;exitY=0.5;exitDx=0;exitDy=0;exitPerimeter=0;" edge="1" parent="1" source="Gzr6hbILwvIzt9myTypM-1">
          <mxGeometry relative="1" as="geometry">
            <mxPoint x="420" y="340" as="targetPoint" />
          </mxGeometry>
        </mxCell>
        <mxCell id="Gzr6hbILwvIzt9myTypM-1" value="&lt;font style=&quot;font-size: 11px;&quot;&gt;zeeguu.core&lt;i&gt; &lt;/i&gt;only uses zeeguu.api for returning certain error responses&lt;/font&gt;" style="shape=note;size=13;whiteSpace=wrap;html=1;fillColor=#fff2cc;strokeColor=#d6b656;verticalAlign=middle;" vertex="1" parent="1">
          <mxGeometry x="480" y="300" width="100" height="80" as="geometry" />
        </mxCell>
      </root>
    </mxGraphModel>
  </diagram>
  <diagram id="vzYDfZ0HoZiS85D7Hon1" name="class-diagram-zeguu.core.model">
    <mxGraphModel dx="1042" dy="711" grid="0" gridSize="10" guides="1" tooltips="1" connect="1" arrows="1" fold="1" page="0" pageScale="1" pageWidth="827" pageHeight="1169" math="0" shadow="0">
      <root>
        <mxCell id="0" />
        <mxCell id="1" parent="0" />
      </root>
    </mxGraphModel>
  </diagram>
</mxfile>
